<?xml version="1.0" encoding="utf-8"?>
<!-- Generator: Adobe Illustrator 21.0.2, SVG Export Plug-In . SVG Version: 6.00 Build 0)  -->
<!DOCTYPE svg PUBLIC "-//W3C//DTD SVG 1.1//EN" "http://www.w3.org/Graphics/SVG/1.1/DTD/svg11.dtd">
<svg version="1.1" id="Layer_1" xmlns="http://www.w3.org/2000/svg" xmlns:xlink="http://www.w3.org/1999/xlink" x="0px" y="0px"
	 width="1375px" height="560px" viewBox="0 0 1375 560" style="enable-background:new 0 0 1375 560;" xml:space="preserve">
<style type="text/css">
	.st0{display:none;fill:#69C9CE;}
	.st1{fill:#FFFFFF;}
	.st2{fill:#49A54D;}
	.st3{fill:#9A1F60;}
	.st4{fill:#B21F67;}
	.st5{fill:none;stroke:#A32064;stroke-width:2.3;stroke-miterlimit:10;}
	.st6{fill:#DB7929;}
	.st7{fill:#F5BD18;}
	.st8{fill:#3C7DC0;}
	.st9{fill:#FDCD13;}
	.st10{fill:none;stroke:#252D6B;stroke-width:1.2;stroke-linecap:round;stroke-miterlimit:10;}
	.st11{fill:none;stroke:#F39120;stroke-width:1.2;stroke-miterlimit:10;}
	.st12{fill:#98D7D9;}
	.st13{fill:#6BC9CE;}
	.st14{fill:#010101;}
	.st15{fill:#A9752A;}
	.st16{fill:#83C341;}
	.st17{fill:#E2A625;}
	.st18{fill:#3D9ED7;}
	.st19{fill:#F6BD49;}
	.st20{fill:#F04D23;}
	.st21{fill:#447DC0;}
	.st22{fill:#EF5333;}
	.st23{fill:#FDEB07;}
	.st24{fill:#FEBC11;}
	.st25{fill:none;stroke:#C1882B;stroke-width:1.2;stroke-linecap:round;stroke-miterlimit:10;}
	.st26{fill:#FEE000;}
	.st27{fill:none;stroke:#A9752A;stroke-width:1.2;stroke-linecap:round;stroke-miterlimit:10;}
	.st28{fill:none;stroke:#7DC242;stroke-width:1.53;stroke-miterlimit:10;}
	.st29{fill:#7DC242;}
	.st30{fill:#FEE600;}
	.st31{fill:#B63825;}
	.st32{fill:#F7911E;}
	.st33{fill:#F05223;}
	.st34{fill:#FCD30A;}
	.st35{fill:#577576;}
	.st36{fill:#8EA4A5;}
	.st37{fill:#5FBB46;}
	.st38{fill:#EEBFD9;}
	.st39{fill:#486EA6;}
	.st40{opacity:0.4;fill:#FFFFFF;enable-background:new    ;}
	.st41{fill:#836DB1;}
	.st42{fill:none;stroke:#010101;stroke-width:1.53;stroke-linecap:round;stroke-linejoin:round;}
	.st43{fill:#FFE784;}
	.st44{fill:#E8CE60;}
	.st45{fill:#EE5627;}
	.st46{fill:#D3BD5D;}
	.st47{fill:#BAA445;}
	.st48{fill:#2C3E3D;}
	.st49{fill:#D23327;}
	.st50{fill:#E0E2E2;}
	.st51{fill:#597777;}
	.st52{fill:#415756;}
	.st53{fill:#E5A438;}
	.st54{fill:none;stroke:#B17129;stroke-width:1.2;stroke-linecap:round;stroke-miterlimit:10;}
	.st55{fill:#9FBABB;}
	.st56{fill:none;stroke:#D23327;stroke-width:1.2;stroke-linecap:round;stroke-miterlimit:10;}
	.st57{fill:#A0BBBC;}
	.st58{fill:none;stroke:#689B9B;stroke-width:1.2;stroke-linecap:round;stroke-miterlimit:10;}
	.st59{fill:#BC6128;}
	.st60{fill:#B0D465;}
	.st61{opacity:0.45;fill:#FFFFFF;enable-background:new    ;}
	.st62{fill:#20C3F3;}
	.st63{fill:#D363A6;}
	.st64{fill:#FFCC1F;}
	.st65{fill:#C6D92D;}
	.st66{fill:#90C73E;}
	.st67{fill:#FFE579;}
	.st68{fill:#FFF8E1;}
	.st69{fill:#A2B35A;}
	.st70{fill:#795D26;}
	.st71{fill:#020202;}
	.st72{fill:#F9A11B;}
	.st73{fill:none;stroke:#B25E27;stroke-width:1.2;stroke-miterlimit:10;}
	.st74{fill:#277CC0;}
	.st75{fill:none;stroke:#949292;stroke-width:1.2;stroke-linecap:round;stroke-linejoin:round;}
	.st76{fill:#3AC6F4;}
	.st77{fill:#F6EB16;}
</style>
<g id="BAnner">
	<rect class="st0" width="1375" height="558"/>
	<path class="st1" d="M1375,161.9c-4.9-0.1-9.8-0.2-14.9-0.2c-56.3,0-102,6.7-102,14.9s45.7,14.9,102,14.9c5.1,0,10-0.1,14.9-0.2
		V161.9L1375,161.9z"/>
	<ellipse class="st1" cx="139.1" cy="227.7" rx="102" ry="14.9"/>
	<polygon class="st2" points="1375,265 1343,312.4 1310.4,215.2 1241.4,286.6 1214,153.4 1126.7,231.8 1099.4,141 750.2,560 
		792.5,560 1047.3,542.8 1170.9,560 1375,560 	"/>
	<polygon class="st2" points="896.7,306.5 864.5,229.6 801.5,320.3 763.1,266.5 698.6,404.8 670.9,347.9 574.6,560 768.5,560 
		995.1,289.6 967.4,195.9 	"/>
	<path class="st3" d="M192.8,126.1c0,0-141.6,199.5-192.8,261.4v52.9L41.3,560h281.9c52.3-21.4,84.2-51.9,76.5-85
		C399.7,475,230.2,223.4,192.8,126.1z"/>
	<path class="st1" d="M192.8,123.6c4.7,12.4,11.8,28,18.1,41.2l-46.4-0.4C180.4,141.8,192.8,123.6,192.8,123.6z"/>
	<polygon class="st4" points="670,405 634.4,282.5 479.4,230.9 452.2,271.3 354.9,255.2 300.1,325.6 44.5,275.4 0,329.1 0,560 
		191.1,560 782.1,538.6 758.8,425.4 	"/>
	<polyline class="st5" points="545.1,252.5 505.2,374 300.1,324.1 	"/>
	<polyline class="st5" points="169.5,517 168.7,409.9 3.3,365.4 	"/>
	<polyline class="st5" points="107.9,394.7 99.1,347.6 8.8,320.4 	"/>
	<polygon class="st6" points="66.4,499.5 75.2,553.7 65.7,555.5 61,500.2 	"/>
	<polygon class="st2" points="40.6,389 19.2,436.2 39.5,433.4 19.4,481.7 41.4,477.9 24.3,520.7 100,508.9 71.4,469.9 91.1,467.2 
		68.2,429.4 82.4,426.7 57.1,385.4 69.4,383.7 45.6,350.5 26.3,391.7 	"/>
	<path class="st7" d="M620.8,151.6c0,0-1.9,8.4,4.8,10.2c3.7,1,7.6-0.4,9.8-3.5c0,0-13.1-0.2-10.7-10"/>
	<path class="st7" d="M610.5,152.4c0,0-4.4,7.5,1.4,11.2c3.2,2.2,7.4,2,10.5-0.3c0,0-12.4-4.2-7.1-12.7"/>
	<polygon class="st8" points="627.7,131.6 667.4,128.2 664.4,145.7 628.1,139.7 	"/>
	<path class="st8" d="M593.9,142.3c3.6,10.6,13.5,12.6,26.1,10.8c12.7-1.8,16.1-10.7,16.1-10.7c1.6-6.6,1.4-5.8,0.4-9.4
		c-0.2-1,0.4,0.8,0,0c-0.9-2.1,10.1-2.9,6.3-24.1c0,0-12.4,8.4-19,7.8c-0.3,0,0.3,0.1,0,0c-4-1.5-8.3-2.1-12.5-1.6l4.4-9.5
		c0,0-23.6-2.8-23.2,21.2"/>
	<path class="st8" d="M600.8,122.1c-4.6-1.1-9.3,1.3-19.7-9.7c-4.4,5.9-0.9,17.8,2,19.6l2.1-2C585.2,130,587.3,125.7,600.8,122.1z"
		/>
	<path class="st9" d="M591.7,120.6c0,0-5.6,5.8-11.4,13c3.9,3.3,8.2,6.2,12.8,8.6C600.2,143.2,599.7,117.1,591.7,120.6z"/>
	
		<ellipse transform="matrix(4.047978e-02 -0.9992 0.9992 4.047978e-02 459.3741 727.4352)" class="st1" cx="608.4" cy="124.5" rx="3.6" ry="2.3"/>
	<line class="st10" x1="637.9" y1="131.4" x2="627.3" y2="117.3"/>
	<line class="st10" x1="635" y1="125.8" x2="642.9" y2="122.5"/>
	<line class="st10" x1="631.6" y1="121.4" x2="642.9" y2="116.4"/>
	<line class="st11" x1="580.9" y1="133.5" x2="598.1" y2="131"/>
	<path class="st12" d="M165.2,352.8c0,0,12.4-6.1,16.7,6.8s-16.5,16.6-16.5,16.6l-1-4.7c0,0,16.1-2.7,12.2-11
		c-3.8-8.3-12.9-2.1-12.9-2.1"/>
	<path class="st13" d="M116.8,369.9c0,0-13.6,2.8-8.9,15.7s23.2,2.8,23.2,2.8l-2.1-4.3c0,0-14.3,7.9-16.4-1.1
		c-2.1-8.9,8.9-9.6,8.9-9.6"/>
	<polygon class="st12" points="151.2,383.6 143.6,385 149.5,417.7 157.7,415.8 	"/>
	<polygon class="st12" points="174.4,415.3 169.4,398.7 130.5,415.9 133.2,432.8 	"/>
	<path class="st14" d="M327.6,351.4c-1.8,0.4-3.7,0.5-5.6,0.3l3.9,26.8c0,0,5.1,1.6,13.5-2.1l-8-26.2
		C330.2,350.7,328.9,351.1,327.6,351.4z"/>
	<path class="st15" d="M282.8,357.2c0,0-10.7-36.5-7-61s82.4-15.5,82.4-15.5s27.6,43.6,0.1,61C330.9,359,282.8,357.2,282.8,357.2z"
		/>
	
		<ellipse transform="matrix(0.9826 -0.1858 0.1858 0.9826 -52.1991 65.223)" class="st16" cx="321.9" cy="311.1" rx="45" ry="41.9"/>
	<ellipse transform="matrix(0.9825 -0.186 0.186 0.9825 -55.9226 64.7262)" class="st14" cx="317" cy="330.4" rx="1.5" ry="1.4"/>
	<path class="st17" d="M347.9,343.7c21.4-10.8,22.8-49.9,8.8-58.4c-11.8-7.1-64.7,6.4-80.9,10.8c5.2-18.1,20-31.8,38.4-35.5l3.9-0.8
		c27-5.5,53.5,11.7,58.9,38.2l10,49.1l-102,20.8l-2.1-10.8C295.6,356.1,330.6,352.4,347.9,343.7z"/>
	<path class="st1" d="M330.4,258.8c-9.4,6.3-15.2,16.8-15.4,28.1c-8.6,1.6-17.2,3.6-24.4,5.4c0.1-7,1.9-18.1,10.4-27.1
		c4.1-2.1,8.6-3.7,13.1-4.6l3.9-0.8C322.1,259,326.3,258.7,330.4,258.8z"/>
	<polygon class="st17" points="385.6,298.8 371.8,300.5 374.6,325 389.3,322 	"/>
	<path class="st15" d="M385.6,298.8l3.6,23.2C389.3,322,377.7,313.5,385.6,298.8z"/>
	
		<ellipse transform="matrix(0.9826 -0.1858 0.1858 0.9826 -51.2893 68.7583)" class="st1" cx="341.2" cy="308" rx="18.4" ry="19.8"/>
	<path class="st1" d="M279.4,299.2c2.3-2.4,5.4-4,8.7-4.7c9.5-1.8,18.8,5.1,20.7,15.4c2,10.3-4.2,20.2-13.6,22
		c-5.7,1-11.5-1-15.4-5.2C276.6,317.8,276.5,308.1,279.4,299.2z"/>
	
		<ellipse transform="matrix(0.9826 -0.1858 0.1858 0.9826 -50.6295 69.1827)" class="st18" cx="343.8" cy="304.7" rx="5.7" ry="6.6"/>
	
		<ellipse transform="matrix(0.9817 -0.1903 0.1903 0.9817 -53.2648 61.9433)" class="st18" cx="295.9" cy="308.3" rx="5.7" ry="6.6"/>
	<path class="st1" d="M301.9,341.1l34.4-4.8c0,0-2.8,7.4-16.2,9.7C306.8,348.3,301.9,341.1,301.9,341.1z"/>
	<polygon class="st14" points="327,337.5 327.8,344.1 322.9,345.8 321.2,338.3 	"/>
	<path class="st14" d="M176.7,429.6c-14.3-13.2-26.1-5.3-26.4,17.7c-0.3,22.9,11.2,52.2,25.4,65.4c14.2,13.2,26.1,5.3,26.4-17.7
		C202.4,472,191,442.7,176.7,429.6z"/>
	<path class="st14" d="M315.2,412.4c-14.3-13.2-26.1-5.3-26.4,17.7c-0.3,22.9,11.2,52.2,25.4,65.4s26.1,5.3,26.4-17.7
		S329.5,425.6,315.2,412.4z"/>
	<polygon class="st19" points="102.3,435.2 121.2,490.5 204,461.7 188.2,402.4 	"/>
	<polygon class="st17" points="187.8,402.4 404,358.5 424.1,449.6 203.9,462 	"/>
	<path class="st20" d="M307.9,414.7c0,0-8.7-18,13-19.5l-1.8-9.4c0,0-28.3-1.5-22.8,22.7c3.7,16,11,27.6,20.1,31.5l0,0
		c0,0,1.5,12.3,5.1,11.8c2.1-0.3,0.7-5.9-0.9-10.4c2.2,0.5,4.4,0.8,6.7,0.8c0.6,3.9,1.8,8.6,3.9,8.3s2.3-3.6,0.6-8.6
		C353.9,438.5,337.4,386.7,307.9,414.7z M328.3,428.7c-9.2,7.6-15.4-6.8-15.4-6.8C321.7,408.7,337.4,421.2,328.3,428.7L328.3,428.7z
		"/>
	<path class="st21" d="M444.8,372c0,0-15.5-9.9-32.3-9.9s-24.8,14.3-31,0l-22.4,5c0,0,7.4,32.9,32.9,22.4s41,5,41,5l-3.7-17.4
		L444.8,372z"/>
	<path class="st22" d="M348,401.5c0,0,5.5,12.2,15.8,13L363,405l11.4-3.2c0,0-11.8-3.9-14.2-14.4C357.9,377.1,336.2,392.1,348,401.5
		z"/>
	
		<ellipse transform="matrix(0.957 -0.2902 0.2902 0.957 -97.8828 118.3213)" class="st23" cx="350" cy="389.2" rx="11.1" ry="13.4"/>
	<ellipse transform="matrix(0.957 -0.2902 0.2902 0.957 -97.8828 118.3213)" class="st24" cx="350" cy="389.2" rx="6.5" ry="7.8"/>
	<path class="st12" d="M164.3,346.3l-48.5,16.4c0,0,1.1,39.2,29.6,33.9C169.3,392.2,173.6,374.9,164.3,346.3z"/>
	<ellipse transform="matrix(0.9597 -0.281 0.281 0.9597 -116.5783 69.595)" class="st15" cx="184.4" cy="441.3" rx="3.2" ry="3.9"/>
	
		<ellipse transform="matrix(0.9597 -0.281 0.281 0.9597 -125.5358 54.3064)" class="st15" cx="126.6" cy="464.9" rx="3.2" ry="3.9"/>
	
		<ellipse transform="matrix(0.9514 -0.308 0.308 0.9514 -108.5573 102.8048)" class="st15" cx="271.4" cy="395.3" rx="2.9" ry="3.2"/>
	
		<ellipse transform="matrix(0.9514 -0.308 0.308 0.9514 -113.6146 104.7695)" class="st15" cx="275.1" cy="412.3" rx="2.9" ry="3.2"/>
	<line class="st25" x1="118.3" y1="480.2" x2="200" y2="447.7"/>
	<polygon class="st15" points="424.9,449.5 343.5,477.3 121.8,490.5 203.2,459.3 	"/>
	<path class="st14" d="M417.9,450.4c-4.6-25-20-45.3-34.4-45.4c-2.1,0-4.3,0.4-6.2,1.3l-3.6,2.4c-7.9,6.9-11.4,22.7-8,41.2
		c2.7,14.5,9,27.4,16.6,35.7l3.5,3.4c4.6,4,9.5,6.3,14.3,6.3C414.5,495.4,422.5,475.3,417.9,450.4z"/>
	<path class="st17" d="M406.9,450.2c2.5,13.4-1.8,24.2-9.6,24.1c-7.7-0.1-16-11-18.5-24.4s1.8-24.2,9.6-24.1
		C396.1,425.9,404.4,436.8,406.9,450.2z"/>
	<path class="st26" d="M396.1,450.1c0.6,3.1-0.4,5.6-2.2,5.6s-3.7-2.5-4.3-5.6s0.4-5.6,2.2-5.6S395.5,447,396.1,450.1z"/>
	<path class="st26" d="M388.1,424.2c-8.3-0.1-12.9,11.5-10.2,25.8c2.6,14.3,11.5,26,19.8,26s12.9-11.5,10.2-25.8
		S396.4,424.3,388.1,424.2z M396.5,469.7c-6.2,0-12.9-8.9-14.9-19.7c-2-10.8,1.4-19.5,7.7-19.5c6.3,0.1,12.9,8.9,14.9,19.7
		C406.2,461,402.7,469.7,396.5,469.7L396.5,469.7z"/>
	<path class="st14" d="M285.1,457.3c-4.9-24.7-21.2-44.8-36.4-44.9c-2.3,0-4.5,0.4-6.6,1.3l-3.9,2.4c-8.4,6.8-12.1,22.4-8.4,40.7
		c2.8,14.3,9.5,27.1,17.6,35.3l3.7,3.3c4.9,3.9,10.1,6.2,15.2,6.2C281.4,501.9,289.8,482,285.1,457.3z"/>
	<path class="st17" d="M273.4,457.2c2.6,13.3-1.9,24-10.2,23.9s-17-10.9-19.6-24.2c-2.6-13.3,1.9-24,10.2-23.9
		C262,433.1,270.8,443.9,273.4,457.2z"/>
	<path class="st26" d="M261.9,457.1c0.6,3.1-0.4,5.6-2.4,5.6s-4-2.5-4.6-5.6s0.4-5.6,2.4-5.6S261.3,454,261.9,457.1z"/>
	<path class="st26" d="M253.4,431.4c-8.8-0.1-13.7,11.4-10.9,25.6s12.2,25.8,21,25.8c8.8,0.1,13.7-11.4,10.9-25.6
		C271.6,443,262.2,431.4,253.4,431.4z M262.3,476.5c-6.6,0-13.7-8.8-15.9-19.5s1.6-19.4,8.2-19.3s13.7,8.8,15.9,19.5
		C272.6,467.9,268.9,476.5,262.3,476.5L262.3,476.5z"/>
	<line class="st27" x1="277.1" y1="384.2" x2="292" y2="455.2"/>
	<path class="st28" d="M450.4,466.3c0,0,5.6,26.2,4.2,48.6"/>
	<path class="st28" d="M480.6,476c0,0-5.6,23.5-1.9,41.4"/>
	<path class="st29" d="M439,498.5c0,0,7.8-8.7,15.9-2.3C454.8,496.2,449.5,505.6,439,498.5z"/>
	
		<ellipse transform="matrix(0.9829 -0.1843 0.1843 0.9829 -76.9649 90.322)" class="st1" cx="447.4" cy="459.2" rx="19.5" ry="8.4"/>
	<ellipse transform="matrix(0.9829 -0.1843 0.1843 0.9829 -76.9648 90.3225)" class="st30" cx="447.4" cy="459.2" rx="8" ry="3.4"/>
	
		<ellipse transform="matrix(8.715528e-02 -0.9962 0.9962 8.715528e-02 -27.6481 909.8695)" class="st1" cx="482.6" cy="470" rx="6.2" ry="14.5"/>
	
		<ellipse transform="matrix(8.715528e-02 -0.9962 0.9962 8.715528e-02 -27.6505 909.895)" class="st30" cx="482.7" cy="470" rx="2.5" ry="5.9"/>
	<path class="st14" d="M393.4,132.4c-22.2,3.4-18.2-23.1-18.2-23.1l-5.2,0.3c0,0-1.8,35.3,27.5,25.4L393.4,132.4z"/>
	<path class="st31" d="M415.6,163.8c14-11.8,29.6,0,29.6,0s-24.4,21-30.3,22.4S415.6,163.8,415.6,163.8z"/>
	<path class="st14" d="M419.8,134.5l-5.2,3.5c0,0,4.6,16-4.2,25.5l8.2,5C429,154.3,419.8,134.5,419.8,134.5z"/>
	
		<ellipse transform="matrix(5.582372e-02 -0.9984 0.9984 5.582372e-02 249.0922 468.7243)" class="st32" cx="372.4" cy="102.7" rx="9.2" ry="9.2"/>
	<path class="st14" d="M419.2,138.9l1.3,3c-4.3,4.7-9.9,8.2-16,10.1l-2.4-2.8C408.4,147,414.3,143.5,419.2,138.9z"/>
	<path class="st14" d="M371,206.4c-0.2,9.8,4.5,22.2,10.5,27.9s11.1,2.4,11.3-7.4c0.2-9.7-4.5-22.2-10.5-27.9
		C376.2,193.4,371.2,196.7,371,206.4z"/>
	<path class="st14" d="M322.4,180.2l-14.1,22.4c2.4,9.2,6.8,18.1,12.1,23c7.9,7.5,14.6,3.1,14.9-9.7
		C335.5,203.7,329.9,188.1,322.4,180.2z"/>
	<path class="st31" d="M308.2,172.3c0,0,6.5-3.3,11.1,3.9s-9.8,12.8-9.8,12.8L308.2,172.3z"/>
	<path class="st1" d="M303.4,181.1c0.4,4.6,3.1,8.1,6.1,7.8s5.2-4.2,4.8-8.8c-0.4-4.6-3.1-8.1-6.1-7.8
		C305.2,172.6,303.1,176.5,303.4,181.1z"/>
	<path class="st31" d="M308,204.6c0,0,72.7,42.1,148.4-3.4C456.5,201.2,371.9,145.8,308,204.6z"/>
	<path class="st33" d="M308,204.6c-5.6-77.7,96-60.6,96-60.6s0.4,16.8,16.1,24.8s24.9-5.3,24.9-5.3s13.1,11.3,11.5,37.6
		C456.5,201.2,369.8,167.5,308,204.6z"/>
	<path class="st34" d="M388.6,142.4c0,0-65.6-0.4-53.2,50.4l-19.6,7.5c0,0-11.8-34.6,28.7-52.6C344.5,147.8,365.6,139.6,388.6,142.4
		z"/>
	<path class="st31" d="M348.9,157.1c6.2-0.7,11.9,3.2,13.5,9.2c3.5,10.7-12,10.9-12,10.9L348.9,157.1z"/>
	<path class="st1" d="M343.1,167.7c0.4,5.6,3.7,9.8,7.3,9.4c3.6-0.4,6.2-5.1,5.8-10.6c-0.4-5.5-3.7-9.8-7.3-9.4
		C345.3,157.5,342.7,162.2,343.1,167.7z"/>
	<path class="st34" d="M441.2,167.2l3.8-3.6c14.1,13.1,11.5,37.6,11.5,37.6l-6-2.3C454.9,180,441.2,167.2,441.2,167.2z"/>
	<path class="st14" d="M434.7,191c-0.2,9.8,4.5,22.2,10.5,27.9s11.1,2.4,11.3-7.4c0.2-9.7-4.5-22.2-10.5-27.9
		C440,178,434.9,181.2,434.7,191z"/>
	<path class="st35" d="M441.2,194.7c-0.1,4.6,2.1,10.6,5,13.3s5.3,1.1,5.4-3.5s-2.1-10.6-5-13.3
		C443.8,188.5,441.4,190.1,441.2,194.7z"/>
	<path class="st36" d="M444.4,197.7c0,2,0.7,3.9,2,5.4c1.2,1.1,2.1,0.4,2.2-1.4c0-2-0.7-3.9-2-5.4
		C445.4,195.2,444.4,195.8,444.4,197.7z"/>
	<path class="st36" d="M440.6,194.1c-0.1,5.2,2.4,11.9,5.6,14.9s5.9,1.3,6-4s-2.4-11.9-5.6-14.9
		C443.5,187.2,440.7,188.9,440.6,194.1z M442,195.5c0.1-3.9,2.1-5.3,4.6-3c2.7,3.1,4.2,7.1,4.2,11.3c-0.1,3.9-2.1,5.3-4.6,3
		C443.5,203.7,442,199.7,442,195.5L442,195.5z"/>
	<path class="st14" d="M377.4,170.8c-0.3,13.7,6.3,31.2,14.7,39.1c8.4,7.9,15.5,3.3,15.8-10.3c0.3-13.7-6.3-31.2-14.7-39.1
		C384.8,152.5,377.7,157.2,377.4,170.8z"/>
	<path class="st35" d="M386.7,176.2c-0.1,6.4,3,14.6,6.9,18.4c4,3.7,7.3,1.6,7.4-4.9s-3-14.6-6.9-18.4
		C390.2,167.6,386.9,169.8,386.7,176.2z"/>
	<path class="st36" d="M391,180.2c0,2.8,1,5.4,2.8,7.5c1.6,1.5,3,0.6,3-2c0-2.8-1-5.4-2.8-7.5C392.4,176.7,391,177.6,391,180.2z"/>
	<path class="st36" d="M385.7,175.3c-0.2,7.3,3.4,16.7,7.9,21s8.3,1.8,8.5-5.6s-3.4-16.7-7.9-21S385.9,167.9,385.7,175.3z
		 M387.7,177.1c0.1-5.5,3-7.4,6.4-4.2s6.1,10.3,6,15.8s-3,7.4-6.4,4.2C390.3,189.8,387.6,182.7,387.7,177.1z"/>
	<path class="st32" d="M424.5,114.9c0,0,3.4-3.6,5.4,0.5c1.9,4.1,0.3,7.7-5.1,6.5C419.5,120.7,424.5,114.9,424.5,114.9z"/>
	
		<ellipse transform="matrix(0.9311 -0.3649 0.3649 0.9311 -16.4448 156.1726)" class="st32" cx="405" cy="121.6" rx="21" ry="19.6"/>
	<ellipse transform="matrix(0.931 -0.365 0.365 0.931 -19.8689 156.6783)" class="st14" cx="404.5" cy="130.9" rx="0.7" ry="0.6"/>
	
		<ellipse transform="matrix(0.9311 -0.3649 0.3649 0.9311 -14.6887 159.0477)" class="st1" cx="413.5" cy="118.4" rx="8.9" ry="9.6"/>
	<path class="st1" d="M384.3,119.4c0.9-1.4,2.2-2.4,3.7-3c5-1.5,10.2,1.3,11.7,6.3c1.3,4.4-0.7,9.1-4.9,11.1c-2.7,1-5.6,0.6-7.9-1.1
		C384.6,128.6,383.7,123.9,384.3,119.4z"/>
	<path class="st14" d="M423.6,103.5L386,114.1c0,0,4.3-13.4,33-18l-2.3,4.6L423.6,103.5z"/>
	
		<ellipse transform="matrix(0.9311 -0.3649 0.3649 0.9311 -14.6887 159.0477)" class="st37" cx="413.5" cy="118.4" rx="2.9" ry="3.4"/>
	
		<ellipse transform="matrix(0.9311 -0.3649 0.3649 0.9311 -18.5727 151.512)" class="st37" cx="391.6" cy="124.9" rx="2.9" ry="3.4"/>
	<path class="st14" d="M414.1,131c-0.8,3.4-3.3,6.1-6.6,7.2c-2.8,0.7-5.7,0.2-8-1.5L414.1,131z"/>
	<path class="st38" d="M413.3,133.1c-1,2.1-2.7,3.8-4.9,4.7c-0.1-1.1,0.3-2.3,1.1-3.1C410.4,133.6,411.8,133,413.3,133.1z"/>
	<polygon class="st39" points="412.1,239.5 415.7,248.2 418.6,246 415.7,237.3 	"/>
	<polygon class="st39" points="439.4,241.1 440.4,244.7 449.6,245 448.9,240.8 	"/>
	<polygon class="st2" points="475.6,269.6 473,263.6 471,265.2 473.1,271.1 	"/>
	<path class="st40" d="M300.7,526.2c0,0-0.7-65.1,36.1-65.1s48.4,28.5,48.4,28.5s-4.8-98.3,48.8-108.3c53.5-10,65,44,65,44
		s-0.9-83.5,59-88.6s112.2,98.1,102.3,195L300.7,526.2z"/>
	<path class="st14" d="M865.6,205.9l-1.1,31.3l21.8-2.2l-4.8-31.8C881.5,203.2,861,205.2,865.6,205.9z"/>
	<path class="st14" d="M793.9,180.7l-8.9,1.9c0,0-3,66.2,56.7,63l0.7-5.1C787.8,239.6,793.9,180.7,793.9,180.7z"/>
	<path class="st9" d="M818.4,177.7c6.9,25,34,39.4,60.6,32.1c26.6-7.3,42.5-33.5,35.6-58.5s-34-39.4-60.5-32.1
		C827.6,126.6,811.5,152.8,818.4,177.7z"/>
	<path class="st14" d="M808.7,157c-6.8-25,9.7-51.8,40.4-60.3s64,4.5,70.8,29.5c2.2,8.3,1.7,17.2-1.4,25.2c-1.2,0.4-2.4,1-3.5,1.8
		c-0.1-0.6-0.3-1.1-0.4-1.7l0,0c-3.7-2.8-10.3-33.8-52.9-25.3c-28,5.6-40.6,14.8-42.2,24.7c-2.5,7.1-3.3,14.7-2.1,22.1
		C813.3,168.3,810.3,162.9,808.7,157z"/>
	<ellipse transform="matrix(0.9908 -0.1352 0.1352 0.9908 -15.4708 107.9981)" class="st9" cx="787.4" cy="167.9" rx="20" ry="20"/>
	<path class="st9" d="M783.8,150.9c0,0,6.3-15.8,21.6-13.3s8.4,13.8-6.2,11.9c-6.7-0.9-6.7,17.8-6.7,17.8"/>
	
		<ellipse transform="matrix(3.315356e-02 -0.9995 0.9995 3.315356e-02 698.3644 1041.3668)" class="st1" cx="887.4" cy="159.7" rx="21.2" ry="20.6"/>
	
		<ellipse transform="matrix(3.315356e-02 -0.9995 0.9995 3.315356e-02 689.2318 1049.9269)" class="st41" cx="887.3" cy="168.7" rx="9.3" ry="9"/>
	
		<ellipse transform="matrix(3.315356e-02 -0.9995 0.9995 3.315356e-02 646.6211 1044.7946)" class="st14" cx="863.3" cy="188.2" rx="2.2" ry="2.1"/>
	<path class="st9" d="M914.4,152.3c0,0,9-7.7,12.6,2.5c3.6,10.3-1.3,18.3-13.5,14.2C901.2,164.9,914.4,152.3,914.4,152.3z"/>
	<path class="st42" d="M878.5,199.4c0,0,9.1-3.6,12.6-9.2"/>
	<path class="st42" d="M828.4,175.2c0,0,7.8-3,17.9,5.1c0,0-12.3,0.2-14.4,5.3"/>
	<polygon class="st43" points="816.7,199.3 767.7,200.9 775.4,277.8 827.5,280.9 816.8,199.4 	"/>
	<polygon class="st43" points="912.3,211.5 866.8,223.5 866.4,223.3 851.1,283.3 907.9,286.7 	"/>
	<polygon class="st44" points="816.8,199.4 814.6,280.5 862.7,283.7 866.4,223.3 	"/>
	<polygon class="st45" points="779.8,213.1 797.1,230.8 801.9,226.3 784.6,208.6 	"/>
	<polygon class="st45" points="796.3,209.7 780.1,225.7 783.1,229.7 801.7,213.8 	"/>
	<path class="st46" d="M886.2,248.4L884,246c-1.3-1.4-2.8-2.6-4.4-3.8l-2.6-1.9l3.8-5.2l2.6,1.9c1.9,1.4,3.7,2.9,5.3,4.6l2.2,2.4
		L886.2,248.4z"/>
	<path class="st47" d="M839.4,245.1l-2.5-5.9l3-1.2c2.2-0.9,4.4-2,6.4-3.3c1-0.6,2-1.2,3.1-1.7l2.9-1.4l2.8,5.8l-2.9,1.4
		c-0.9,0.4-1.7,0.9-2.5,1.4c-2.3,1.4-4.8,2.7-7.3,3.7L839.4,245.1z"/>
	<path class="st46" d="M810.7,243.2l-2.7-1.8c-2-1.3-3.9-2.9-5.5-4.6l-2.2-2.4l4.7-4.4l2.2,2.4c1.3,1.4,2.8,2.6,4.4,3.6l2.7,1.8
		L810.7,243.2z"/>
	<path class="st47" d="M861,229.8l-3.2,0.2l0.4,6.4l3.2-0.2c1.4-0.1,2.8,0,4.2,0.2l0.4-6.4C864.4,229.8,862.7,229.7,861,229.8z"/>
	<path class="st46" d="M873,231.5c-2.2-0.8-4.6-1.3-6.9-1.5l-0.4,6.4c1.8,0.2,3.5,0.6,5.2,1.2l3.1,1l2.1-6.1L873,231.5z"/>
	<path class="st47" d="M825.6,250.6c-2.2-0.1-4.3-0.3-6.4-0.8l-2.7-0.7l0.2-6l3.9,0.7c3.1,0.7,6.2,0.9,9.3,0.5l3.1-0.4l0.7,6.1
		l-3.1,0.4C828.9,250.5,827.2,250.6,825.6,250.6z"/>
	
		<ellipse transform="matrix(0.9877 -0.1566 0.1566 0.9877 -60.5471 91.3238)" class="st48" cx="549.3" cy="429.9" rx="42" ry="53.4"/>
	<path class="st49" d="M683.3,170.4L600.7,184c0,0-8.8-0.1-15.9,19.1l82.6-11.4L683.3,170.4z"/>
	<path class="st50" d="M584.7,203.1c-9.1,25.2-13.5,51.8-13,78.6l91.5-2.5l4.1-87.5L584.7,203.1z"/>
	
		<ellipse transform="matrix(0.9872 -0.1595 0.1595 0.9872 -56.1339 135.1238)" class="st48" cx="813.7" cy="417.2" rx="39.1" ry="51.3"/>
	<path class="st35" d="M868.4,418.4c-2.5,0.1-66.7,5.8-66.7,5.8l-0.9,8.3l69.2-3.7L868.4,418.4z"/>
	<path class="st51" d="M620.2,428.5c-2.5,0.1-66.7,6-66.7,6l-0.9,8.3l69.2-3.8L620.2,428.5z"/>
	<polygon class="st35" points="726.8,413.8 729.8,444.8 811.4,441.9 809.5,409.7 	"/>
	<polygon class="st48" points="729.8,444.8 700.3,446.1 699.4,412.8 726.8,411.6 	"/>
	<path class="st52" d="M669.7,418.3c-2.2,0-59.4,4.5-59.4,4.5l-0.9,8.3l61.6-2.3L669.7,418.3z"/>
	<polygon class="st53" points="742.6,264.1 945.4,253.3 949.3,300.7 748.6,311.4 	"/>
	<line class="st54" x1="744.2" y1="282" x2="945.7" y2="271.3"/>
	<line class="st54" x1="750.3" y1="295.6" x2="844" y2="291.3"/>
	<line class="st54" x1="856.1" y1="290.3" x2="947.1" y2="286.4"/>
	<path class="st49" d="M563.2,262c-27.1,3.1-23.4,1.8-62.5,7c-38.4,5.1-37.5,44.5-37.5,44.5l7.7,116.5l71.2-3.9
		c-3.8-14.9-9.8-46.2-10.5-96C531,288.1,548.3,269.9,563.2,262z"/>
	<path class="st33" d="M940.8,301.1l-183.3,8.7L745.6,169c-36.6-3.2-85.1-2.2-95.5,20.6s-13.4,68.8-13.4,68.8s-37.4,1.9-73.5,3.6
		c-14.8,7.9-32.2,26.1-31.6,68c0.7,49.7,6.8,81.1,10.5,96l405.7-22.4L940.8,301.1z"/>
	<polygon class="st49" points="959.2,379.9 613.6,399.2 615.4,426.3 961.4,403.6 	"/>
	<polygon class="st49" points="736.5,290.8 702,293 702.9,306.5 737.3,303.7 	"/>
	<polygon class="st55" points="735.9,282.9 701.5,285.1 702.4,298.6 736.8,295.8 	"/>
	<path class="st49" d="M556,420c0,0-15.9-93.3,72-98.9s85.4,97.9,85.4,97.9L556,420z"/>
	<path class="st1" d="M651,256.6c0,0,2.6-52,16.2-64.8c10-9.4,66.7-6,66.7-6l5.9,65L651,256.6z"/>
	<line class="st56" x1="758.6" y1="310.9" x2="765.1" y2="390.6"/>
	
		<ellipse transform="matrix(0.9979 -6.522704e-02 6.522704e-02 0.9979 -24.9273 58.5181)" class="st14" cx="883.7" cy="411" rx="57.3" ry="63.3"/>
	<path class="st1" d="M923.3,408.5c-1.5-23.5-19.3-41.4-39.7-40s-35.8,21.5-34.4,45c1.5,23.5,19.3,41.4,39.7,40
		S924.8,432,923.3,408.5z M888.2,442.1c-14.9,1-27.9-12.1-29-29.2s10.2-31.9,25.1-32.9c14.9-1,27.9,12.1,29,29.2
		S903.1,441.1,888.2,442.1L888.2,442.1z"/>
	<path class="st35" d="M905.5,394.9c-1.5-2.2-3.3-4.2-5.3-6l-10.5,12.6l-1.1-18.3c-1.5-0.2-3.1-0.2-4.6-0.2
		c-1.1,0.1-0.1,0.1-3.2,0.5L882,402l-12-12.3c-1.7,1.7-3,4.9-4.2,7l12.5,13.6l-16.1,1.1c-0.2,0.8-0.2,1.7-0.1,2.5
		c0.1,1.4,0.3,2.7,0.7,4l15.9-1.1L868.6,430c1.4,1.9,3.1,3.5,5,4.9l9.6-12.9l1.1,17c3.2,0,2.2,0.1,3.3,0c1.5-0.2,3-0.5,4.6-0.8
		l-1.1-16.8l11.2,10.9c1.8-1.7,3.3-3.7,4.6-5.8l-10.6-10.9l14.6-1c0.2-1.3,0.3-2.7,0.2-4c0-0.8-0.1-1.7-0.4-2.5l-14.8,1L905.5,394.9
		z"/>
	<path class="st36" d="M892.5,410.6c0.2,3.8-2.3,7.1-5.6,7.4c-3.3,0.2-6.3-2.7-6.5-6.5s2.3-7.1,5.6-7.4
		C889.3,403.9,892.2,406.8,892.5,410.6z"/>
	<path class="st36" d="M884.2,375.8c-17,1.1-29.7,17.9-28.5,37.3c1.2,19.5,16,34.3,32.9,33.2c17-1.2,29.7-17.9,28.5-37.3
		C915.9,389.5,901.1,374.6,884.2,375.8z M888.1,437.7c-12.8,0.9-23.9-10.3-24.9-25c-0.9-14.7,8.7-27.3,21.5-28.2
		c12.8-0.9,24,10.4,24.9,25C910.4,424.2,900.9,436.8,888.1,437.7z"/>
	<path class="st50" d="M515.8,343.9c0,0-13.4-0.6-13-14.1s11.6-13.3,11.6-13.3s6.1,2.1,6,14.4C520.2,343.2,515.8,343.9,515.8,343.9z
		"/>
	<path class="st50" d="M472.1,345.2c0,0-13.4-0.6-13-14.1s11.6-13.3,11.6-13.3s6.1,2.1,6,14.4C476.5,344.5,472.1,345.2,472.1,345.2z
		"/>
	<polygon class="st49" points="580.3,401.8 457.6,408.6 459.4,432.9 585.6,427.8 	"/>
	<path class="st14" d="M692.7,415c2.8,36.1-20.6,67.4-52.2,70c-31.6,2.6-59.4-24.7-62.1-60.8c-2.8-36.1,20.6-67.4,52.2-70
		C662.2,351.6,690,378.9,692.7,415z"/>
	<path class="st1" d="M675.5,416.3c-1.8-24.4-19.8-42.8-40.3-41.1c-20.5,1.7-35.6,22.9-33.8,47.3s19.8,42.8,40.3,41.1
		C662.1,461.9,677.3,440.7,675.5,416.3z M640.7,450.7c-14.5,1.2-27.3-11.8-28.6-29.1c-1.3-17.3,9.5-32.3,24-33.6
		c14.5-1.3,27.3,11.8,28.6,29.1C666,434.4,655.2,449.5,640.7,450.7z"/>
	<path class="st35" d="M657.3,402.5c-1.5-2.2-3.3-4.3-5.3-6.1l-10.2,13.1l-1.4-18.8c-1.5-0.1-3.1-0.2-4.6-0.2
		c-1.1,0.1-0.1,0.1-3.2,0.6l1.4,19.1l-12-12.6c-1.7,1.8-2.8,5.1-4.1,7.3l12.6,13.9l-16,1.4c-0.2,0.9-0.2,1.7,0,2.6
		c0.1,1.4,0.3,2.8,0.7,4.1l15.8-1.3l-9.8,13.7c1.4,1.9,3.1,3.6,5,5l9.3-13.5l1.3,17.5c3.1-0.1,2.1,0.1,3.2,0c1.5-0.2,3-0.5,4.5-0.9
		l-1.3-17.3l11.2,11.1c1.8-1.8,3.3-3.8,4.5-6L648.3,424l14.5-1.2c0.2-1.4,0.2-2.8,0.1-4.2c0-0.9-0.1-1.7-0.4-2.6l-14.7,1.2
		L657.3,402.5z"/>
	<path class="st36" d="M644.6,418.9c0.3,4-2.2,7.4-5.5,7.7c-3.3,0.3-6.2-2.7-6.5-6.7s2.2-7.4,5.5-7.7S644.3,414.9,644.6,418.9z"/>
	<path class="st36" d="M635.9,383c-16.8,1.4-29.2,18.8-27.8,38.9c1.5,20.1,16.3,35.2,33.1,33.8c16.8-1.4,29.2-18.8,27.8-38.9
		C667.5,396.8,652.7,381.6,635.9,383z M640.6,446.8c-12.7,1.1-23.8-10.3-25-25.5s8.3-28.3,21-29.4s23.8,10.3,25,25.5
		C662.7,432.5,653.3,445.7,640.6,446.8L640.6,446.8z"/>
	<path class="st57" d="M468.7,407.7l68.4-3.5c-2.7-22.4-4.8-50.3-4.8-50.3l-66.5,3.2C465.9,357.1,467.3,386.9,468.7,407.7z"/>
	<line class="st58" x1="467.2" y1="371.2" x2="533.3" y2="367.6"/>
	<line class="st58" x1="467.5" y1="390.9" x2="534.2" y2="385.8"/>
	
		<ellipse transform="matrix(0.9992 -4.013157e-02 4.013157e-02 0.9992 -9.317 36.8662)" class="st9" cx="913.6" cy="250.5" rx="16.7" ry="16.7"/>
	<path class="st56" d="M636.7,259.5c0,0-1.8,29.4-1.8,61.9"/>
	<polygon class="st59" points="1344.3,474.9 1324.3,554.2 1331.1,555.8 1347.4,475 	"/>
	<path class="st16" d="M1375,470.2c-8.1-14.3-22.5-23.2-40.9-15.6c0,0-37.9,8.6-35,48.8c2.8,39.4,57.4,44,75.9,19.2V470.2z"/>
	<path class="st60" d="M1333.4,483.8c0,0-12.6-4.6-14.7,10.4C1318.7,494.2,1332.7,497.3,1333.4,483.8z"/>
	<path class="st60" d="M1358.4,482.5c0,0-13-3.2-13.4,12C1345.1,494.5,1359.4,496,1358.4,482.5z"/>
	<path class="st60" d="M1353.3,506.7c0,0-10.9-4-12.7,9C1340.6,515.7,1352.8,518.5,1353.3,506.7z"/>
	<path class="st61" d="M660,545.9c0,0,3.1-92.6,54.8-92.4s65.5,22.9,65.5,22.9s-8.9-82.1,66.2-93.1s93.9,41,93.9,41
		s-4-85.2,80.1-90.6c84.1-5.4,158.1,111,144.6,220.1L660,545.9z"/>
	<polygon class="st1" points="948.7,492.1 945.9,510 962,510.7 961.3,492.6 	"/>
	<path class="st62" d="M928,493.5l52.3,2.3c0,0,3.1-29.6-24.2-30.8C928.7,463.8,928,493.5,928,493.5z"/>
	
		<ellipse transform="matrix(0.8993 -0.4373 0.4373 0.8993 -113.2739 460.9101)" class="st1" cx="944.3" cy="476.4" rx="7.1" ry="4.2"/>
	
		<ellipse transform="matrix(0.5147 -0.8574 0.8574 0.5147 61.0227 1055.4058)" class="st1" cx="962.8" cy="473.8" rx="2.8" ry="4.7"/>
	<polygon class="st1" points="1003.5,500.5 1000.5,513.8 1012.4,515.2 1012.9,501.6 	"/>
	<path class="st63" d="M988.7,500.7l38,4.5c0,0,3.6-19.5-16.3-21.9C990.6,481,988.7,500.7,988.7,500.7z"/>
	<path class="st29" d="M1375,558.8c-74-12.6-387.2-62.9-688.1-59.6C376.8,502.5,59.9,550.5,0,560h1375V558.8z"/>
	<path class="st64" d="M524.1,517.9c0,0,13.6-7.7,33.4,0.4C557.5,518.2,541.1,525.9,524.1,517.9z"/>
	<path class="st65" d="M568.9,530.6c0,0,17.2-9.7,42,0.5C611,531.1,590.3,540.8,568.9,530.6z"/>
	<path class="st65" d="M428.5,524.3c0,0-15.8,10.3-40.3,1.9C388.2,526.2,407.4,515.7,428.5,524.3z"/>
	<path class="st66" d="M472.4,534.2c0,0,17.2-9.7,42,0.5C514.4,534.6,493.8,544.4,472.4,534.2z"/>
	<path class="st64" d="M680.2,530.5c0,0,18.7-11.7,45.4,0C725.7,530.5,703.2,542.3,680.2,530.5z"/>
	<path class="st64" d="M957.7,526c0,0,18.8-7.2,43.3,4.3C1001.1,530.4,978.7,537.2,957.7,526z"/>
	<path class="st65" d="M770.2,519.9c0,0,13.7-9.2,36.9-1.2C795.5,524.3,782.2,524.7,770.2,519.9z"/>
	<path class="st66" d="M871.2,524.2c0,0,16.7-8.6,39.8,2C911,526.2,891,534.7,871.2,524.2z"/>
	<path class="st65" d="M1017.9,523.3c0,0,20.4-7.5,46.7,5.3C1064.7,528.6,1040.4,535.7,1017.9,523.3z"/>
	<path class="st66" d="M639.5,514.3c0,0,15.9-9.5,39.1-1.2C678.6,513.1,659.5,522.7,639.5,514.3z"/>
	<path class="st34" d="M1064.8,318.4l219.5,42.7c0,0-14.8,102.8-127.9,80.7C1043.2,419.8,1064.8,318.4,1064.8,318.4z"/>
	<path class="st34" d="M1055.5,392.8c0.7-5.4,9.4-6.5,9.4-6.5c-51.3-18-44.9-56.5-34.7-65.6c10.5-9.4,37.6-1.8,33.2,18.9
		s-22.4,7.1-17.7,1.5c4.7-5.6,9.9-0.3,9.9-0.3s-1.1-13.7-11.4-12.2s-21.4,21.1-1.9,36.2c19.4,15.1,25.7,12.1,32.9,22.9
		C1083.8,400,1053.9,405.3,1055.5,392.8z"/>
	<path class="st67" d="M1284.2,361.2l-219.5-42.7c-2.4,14.1-2.2,28.4,0.6,42.4l202.5,41.6C1275.9,390,1281.5,375.9,1284.2,361.2z"/>
	<polygon class="st68" points="1090.6,366 1118.9,371.9 1122.3,329.7 1093.7,324.1 	"/>
	<polygon class="st68" points="1185.7,342 1154.4,335.9 1150,378.3 1176.4,383.7 	"/>
	<polygon class="st68" points="1246.8,353.9 1215.8,347.8 1206.2,389.8 1234.3,395.7 	"/>
	<path class="st34" d="M1023.9,441.9c-16.3-3.1-17.1-22.8-17.1-22.8l274,52.4c0,0-5.9,19.4-24.7,15.7
		C1237.3,483.4,1023.9,441.9,1023.9,441.9z"/>
	<path class="st68" d="M1296.9,367.6l-25.8,5.7l-11.1,12.6l3,30.1l35.1,30.1l40.5-45.7L1296.9,367.6z M1273.9,390
		c-2.6,1.2-5.7,0.1-6.9-2.5c-1.4-2.5-0.6-5.6,1.9-7h0.1c2.6-1.2,5.7-0.1,6.9,2.5C1277.4,385.4,1276.5,388.5,1273.9,390
		C1274,390,1274,390,1273.9,390L1273.9,390z"/>
	<polygon class="st69" points="1267.8,410.7 1296.6,436.9 1328.8,402.4 1296.4,376.4 	"/>
	<polygon class="st68" points="1278.9,409.9 1287.4,416.9 1290.4,413.2 1285.8,408.4 1289.9,404.3 1302.5,415.1 1298.5,419.9 
		1301.7,422.9 1312.9,411.1 1309.2,407 1305.2,411 1293.6,400.5 1297,396.5 1302.7,401.8 1306.7,396.9 1296.1,387.8 	"/>
	<path class="st70" d="M1254.4,354.8l-4.5-0.8c0,0,2,26.6,20.8,30.2l2.5-3.3C1253.5,375.6,1254.4,354.8,1254.4,354.8z"/>
	
		<ellipse transform="matrix(0.9934 -0.1146 0.1146 0.9934 -45.6646 125.4579)" class="st14" cx="1068.3" cy="459.9" rx="39" ry="43.1"/>
	<path class="st35" d="M1083,448.4c-1.1-1.6-2.4-3.1-3.9-4.4l-8,9l-0.6-13.2c-1.1-0.1-2.3-0.2-3.4-0.1c-0.8,0-0.1,0.1-2.5,0.3
		l0.6,13.4l-8.8-9.1c-1.3,1.5-2.4,3.2-3.2,5.1l9.2,10l-12.1,0.6c-0.2,0.6-0.2,1.2-0.1,1.8c0,1,0.2,2,0.5,2.9l12-0.6l-7.7,9.4
		c1,1.4,2.3,2.6,3.7,3.6l7.4-9.2l0.6,12.3c2.4,0,1.6,0.1,2.5,0.1c1.2-0.1,2.3-0.3,3.4-0.5l-0.6-12.1l8.3,8c1.4-1.2,2.5-2.6,3.5-4.2
		l-7.9-8l11-0.5c0.2-1,0.2-1.9,0.2-2.9c0-0.6-0.1-1.2-0.3-1.8l-11.2,0.5L1083,448.4z"/>
	
		<ellipse transform="matrix(0.9988 -4.993524e-02 4.993524e-02 0.9988 -21.5256 54.0393)" class="st36" cx="1070.7" cy="457.8" rx="4.6" ry="5"/>
	<path class="st36" d="M1067.2,434.3c-12.8,0.6-22.6,12.6-21.9,26.6s11.6,25,24.3,24.4c12.8-0.6,22.6-12.6,21.9-26.6
		C1090.8,444.7,1079.9,433.7,1067.2,434.3z M1069.3,479.1c-9.6,0.5-17.9-7.8-18.4-18.4s6.9-19.6,16.5-20.1s17.9,7.8,18.4,18.4
		S1079,478.6,1069.3,479.1L1069.3,479.1z"/>
	
		<ellipse transform="matrix(0.9934 -0.1146 0.1146 0.9934 -47.6875 142.2797)" class="st14" cx="1213.6" cy="485.9" rx="42.3" ry="46.8"/>
	<path class="st35" d="M1229.9,473.5c-1.2-1.8-2.6-3.4-4.2-4.8l-8.7,9.8l-0.7-14.4c-1.3-0.1-2.5-0.2-3.8-0.2c-0.9,0-0.1,0.1-2.6,0.4
		l0.6,14.5l-9.6-9.8c-1.4,1.3-2.5,3.8-3.5,5.5l10,10.9l-13.2,0.6c-0.2,0.6-0.2,1.3-0.1,2c0,1.1,0.2,2.1,0.5,3.1l13-0.6l-8.4,10.2
		c1.1,1.5,2.5,2.8,4,3.9l8-10l0.7,13.4c2.6,0,1.8,0.1,2.7,0.1c1.3-0.1,2.5-0.3,3.7-0.6l-0.6-13.3l9,8.7c1.5-1.3,2.8-2.8,3.8-4.5
		l-8.5-8.7l11.9-0.6c0.2-1,0.3-2.1,0.2-3.2c0-0.7-0.1-1.3-0.3-2l-12.1,0.6L1229.9,473.5z"/>
	
		<ellipse transform="matrix(0.9988 -4.902397e-02 4.902397e-02 0.9988 -22.3612 60.0994)" class="st36" cx="1214" cy="485.9" rx="5" ry="5.5"/>
	<path class="st36" d="M1212.7,458.2c-13.8,0.7-24.5,13.6-23.7,28.9s12.6,27.1,26.4,26.5c13.8-0.7,24.5-13.6,23.7-28.9
		S1226.6,457.5,1212.7,458.2z M1215.1,506.8c-10.5,0.5-19.4-8.4-20-20s7.4-21.3,17.9-21.9c10.5-0.5,19.4,8.4,20,20
		S1225.5,506.3,1215.1,506.8z"/>
	<path class="st71" d="M1205.4,351.4c14.8-15.2,0-35.2,0-35.2l13.1-4.9c0,0,23.8,17.2,11.5,43.4"/>
	<path class="st71" d="M1218.5,311.2l1.2,8.2c0,0,15.3-9.6,27.2-11.1l-0.8-7.8C1232.5,302.2,1218.5,311.2,1218.5,311.2z"/>
	<circle class="st72" cx="1218.9" cy="349.1" r="19.1"/>
	<path class="st72" d="M1268.1,309.5c-4.9-8.5-13.4-10.2-22-9.1l0.9,7.8c6.4-0.8,11.8,0.6,13.3,7c4.5,18.4-27.1,25.4-27.1,25.4
		l2.5,7C1235.8,347.7,1280.8,331.7,1268.1,309.5z"/>
	<polygon class="st71" points="1139.3,296.2 1172,295.7 1171.6,289.5 1138.7,288.2 	"/>
	
		<ellipse transform="matrix(0.9687 -0.2484 0.2484 0.9687 -38.9802 278.3455)" class="st72" cx="1083.5" cy="293.6" rx="19.1" ry="19.1"/>
	<polygon class="st72" points="1083.2,286.1 1082.8,297 1139.3,296.2 1138.7,288.2 	"/>
	<path class="st72" d="M1082.8,274.7c0,0-34.2,1.7-32.8,9.4c1.5,7.7,17.7,5.9,30.9-3.6"/>
	<path class="st73" d="M1076.4,292.1c0,0-3.9,10.7,2.8,13.1c6.7,2.4,6.3-11.4,6.3-11.4"/>
	
		<ellipse transform="matrix(1.431118e-02 -0.9999 0.9999 1.431118e-02 897.3115 1465.2723)" class="st72" cx="1191.9" cy="277.5" rx="43.1" ry="46.2"/>
	<polygon class="st14" points="1199.1,276 1175.4,273.6 1175.2,277.5 1197,280.2 	"/>
	
		<ellipse transform="matrix(1.413665e-02 -0.9999 0.9999 1.413665e-02 870.3892 1474.7147)" class="st14" cx="1183.1" cy="296" rx="1.4" ry="1.5"/>
	
		<ellipse transform="matrix(1.431118e-02 -0.9999 0.9999 1.431118e-02 915.3407 1486.6948)" class="st14" cx="1211.7" cy="279.1" rx="20.3" ry="18.9"/>
	
		<ellipse transform="matrix(1.431118e-02 -0.9999 0.9999 1.431118e-02 915.3407 1486.6948)" class="st1" cx="1211.7" cy="279.1" rx="16" ry="14.9"/>
	
		<ellipse transform="matrix(0.104 -0.9946 0.9946 0.104 767.8973 1399.5474)" class="st14" cx="1160.7" cy="273.6" rx="20.3" ry="18.9"/>
	
		<ellipse transform="matrix(0.104 -0.9946 0.9946 0.104 767.8973 1399.5474)" class="st1" cx="1160.7" cy="273.6" rx="15.9" ry="14.8"/>
	
		<ellipse transform="matrix(1.431118e-02 -0.9999 0.9999 1.431118e-02 870.4606 1429.8347)" class="st18" cx="1160.5" cy="273.4" rx="4.3" ry="3.7"/>
	
		<ellipse transform="matrix(1.431118e-02 -0.9999 0.9999 1.431118e-02 914.8207 1485.636)" class="st18" cx="1210.9" cy="278.8" rx="4.3" ry="3.7"/>
	<path class="st74" d="M1224.6,305.7c-1.6,1-3.7,1-5.3,0c0,0-2.6,11.2,9.9,8.6c12.6-2.6,17.8-23.1,17.8-23.1
		c4-23.1-5.3-42.9-25.1-52.9c-19.8-9.9-37-6.6-52.2,1.3l64.7,25.8C1234.5,265.4,1241.1,295.1,1224.6,305.7z"/>
	<polygon class="st1" points="1229.2,247.5 1225.6,258.1 1220.6,255.5 1224.9,245.6 	"/>
	<path class="st1" d="M1167.8,300.4c17.4,8.4,35.9,2.7,35.9,2.7s3.9-1.2,4.1,2.5s-9.8,7.5-23.2,6.2s-20.2-6.1-20.3-7.8
		C1164,301,1165.4,299.3,1167.8,300.4z"/>
	<line class="st75" x1="1199.9" y1="303.6" x2="1200.8" y2="310.8"/>
	<line class="st75" x1="1190.6" y1="304.9" x2="1191" y2="312.3"/>
	<line class="st75" x1="1181.3" y1="304.4" x2="1181" y2="311.6"/>
	<line class="st75" x1="1172.5" y1="302.4" x2="1171.7" y2="309.4"/>
	<path class="st1" d="M1142.7,340.9c0,0-33.8-8.7-35.4,56.8l27.4,1.9c1.9-29.5,5.8-26.1,5.8-26.1c3.5-0.1,3,17.8,2.6,26.6l27.4,1.9
		C1170.3,402.1,1177.6,342.2,1142.7,340.9z"/>
	<path class="st76" d="M1139.3,359.4c-10.5,1.4-14.9,23-16.6,35.5l7.6,0.4c0.3-6.2,2-29.8,10.2-30s7.9,24.6,7.7,31l4.6,0.3
		C1153.6,382.4,1152.8,357.5,1139.3,359.4z"/>
	<path class="st33" d="M1139.8,345.2c-28.9-0.6-28.7,49-28.7,49l4.8,0.3c1.5-10.9,7.2-42,23.2-43.4c18.9-1.6,21.2,28.9,21,46
		l6.1,0.4C1166.2,397.4,1168.8,345.8,1139.8,345.2z"/>
	<path class="st77" d="M1139.1,351.1c-15.9,1.3-21.7,32.5-23.2,43.4l6.8,0.4c1.7-12.6,6.1-34.1,16.6-35.5
		c13.5-1.9,14.2,23,13.6,37.3l7.1,0.4C1160.3,380,1158,349.6,1139.1,351.1z"/>
</g>
</svg>
